# xmcd
#
# Track frame offsets:
#	150
#	12186
#	33729
#	59720
#	84702
#	112821
#	134757
#	162750
#	177986
#	202105
#	217327
#	239550
#	253203
#	278153
#
# Disc length: 3915 seconds
#
# Revision: 1
# Processed by: cddbd v1.5.1PL2 Copyright (c) Steve Scherf et al.
# Submitted via: EasyCDDAExtractor 9.0.0.1
#
DISCID=de0f490e
DTITLE=Ozzy Osbourne - Madison Square Garden New York City Early Show Source 2
DYEAR=1981
DGENRE=Hard Rock
TTITLE0=Carmina Burana
TTITLE1=I Don't Know
TTITLE2=Crazy Train
TTITLE3=Believer
TTITLE4=Mr Crowley
TTITLE5=Flying High Again
TTITLE6=Revelation (Mother Earth)
TTITLE7=Steal Away (The Night)
TTITLE8=Tommy Aldridge Drum Solo
TTITLE9=No Bone Movies
TTITLE10=Suicide Solution
TTITLE11=Iron Man
TTITLE12=Children Of The Grave
TTITLE13=Paranoid
EXTD=
EXTT0=
EXTT1=
EXTT2=
EXTT3=
EXTT4=
EXTT5=
EXTT6=
EXTT7=
EXTT8=
EXTT9=
EXTT10=
EXTT11=
EXTT12=
EXTT13=
PLAYORDER=
